<svg width="1200" height="600" viewBox="0 0 1200 600" fill="none" xmlns="http://www.w3.org/2000/svg">
  <defs>
    <linearGradient id="blueGrad" x1="0" y1="0" x2="1" y2="1">
      <stop offset="0%" stop-color="#0B2B5E"/>
      <stop offset="100%" stop-color="#3B7CD8"/>
    </linearGradient>
  </defs>
  <rect width="1200" height="600" rx="30" fill="#F8FAFC"/>
  <g opacity="0.8">
    <rect x="320" y="130" width="120" height="120" rx="24" fill="url(#blueGrad)"/>
    <rect x="470" y="60" width="100" height="100" rx="20" fill="#4E8BDD"/>
    <rect x="560" y="190" width="80" height="80" rx="16" fill="#5FA3F4"/>
    <rect x="410" y="280" width="140" height="140" rx="28" fill="#0B2B5E"/>
    <rect x="650" y="320" width="110" height="110" rx="22" fill="#3C79D4"/>
    <rect x="760" y="150" width="90" height="90" rx="18" fill="#3C79D4"/>
    <rect x="880" y="260" width="70" height="70" rx="14" fill="#2D57A0"/>
  </g>
  <g stroke="#0B2B5E" stroke-width="8" stroke-linecap="round" opacity="0.5">
    <path d="M380 250L500 110"/>
    <path d="M410 340L605 250"/>
    <path d="M530 300L700 310"/>
    <path d="M710 190L840 260"/>
    <path d="M685 230L850 340"/>
  </g>
  <g fill="#0B2B5E" opacity="0.9">
    <circle cx="320" cy="130" r="12"/>
    <circle cx="490" cy="60" r="10"/>
    <circle cx="600" cy="220" r="10"/>
    <circle cx="650" cy="360" r="12"/>
    <circle cx="760" cy="150" r="9"/>
    <circle cx="880" cy="260" r="8"/>
  </g>
  <rect x="230" y="420" width="740" height="120" rx="30" fill="#FFFFFF" stroke="#E2E8F0" stroke-width="1.5"/>
  <text x="600" y="470" text-anchor="middle" font-family="Inter, sans-serif" font-weight="700" font-size="28" fill="#0B2B5E">Первая российская многоотраслевая B2B-сеть непрерывных продаж.</text>
  <text x="600" y="510" text-anchor="middle" font-family="Inter, sans-serif" font-weight="500" font-size="18" fill="#475569">Твоя отрасль. Твои контакты. Твои возможности. 365 дней в году.</text>
</svg>
